<?xml version='1.0' encoding='UTF-8'?>
<!DOCTYPE svg PUBLIC "-//W3C//DTD SVG 1.0//EN" "http://www.w3.org/TR/2001/REC-SVG-20010904/DTD/svg10.dtd">
<svg viewBox="0 0 832 1720" xmlns="http://www.w3.org/2000/svg" xmlns:inkspace="http://www.inkscape.org/namespaces/inkscape" xmlns:xlink="http://www.w3.org/1999/xlink">
  <defs id="defs_block">
    <filter height="1.504" id="filter_blur" inkspace:collect="always" width="1.1575" x="-0.07875" y="-0.252">
      <feGaussianBlur id="feGaussianBlur3780" inkspace:collect="always" stdDeviation="4.2" />
    </filter>
  </defs>
  <title>blockdiag</title>
  <desc>blockdiag {
   root [label="ejeacuicola.mx"];

   index [label="/index.html", numbered = 0];
   loggedin [label="User logged-in"];
   loggedout [label="User logged-out"];

   wamp [label="/wamp/"];
   couch_api [label="datos/"];
   couch_rpc [label="Data RPC"];
   couch_pubsub [label="Data PubSub"];
   xbee_api [label="sensores/"];
   xbee_rpc [label="Sensors RPC"];
   xbee_pubsub [label="Sensors PubSub"];

   couch [label="WAMP DATA API"];
   couch_commands [label="RPC Commands"];
   group couch_rpc_group {
       couch_commands -&gt; rpc_login;
                         rpc_login -&gt; rpc_loggedIn;
                         rpc_login -&gt; rpc_loggedOut;
       couch_commands -&gt; rpc_logout;
                         rpc_logout -&gt; rpc_loggedOut;
   }
   couch_events [label="Publish/Subscribe\nEvents"];
   group couch_pubsub_group {
       couch_events;
   }
   xbee [label="WAMP SENSOR API"];

   useradmin [label="User is ADMIN", numbered = 1];
   user [label="User is Contributor", numbered = 2];
   user_admin [numbered=1];
   user_rights [numbered=2];

   root;
   index -&gt; content -&gt; loggedout -&gt; dologin;
   index -&gt; content -&gt; loggedin -&gt; dologout;
                       loggedin -&gt; useradmin;
                       loggedin -&gt; user;
   wamp -&gt; xbee_api -&gt; xbee_rpc;
           xbee_api -&gt; xbee_pubsub;
   wamp -&gt; couch_api -&gt; couch_rpc;
           couch_api -&gt; couch_pubsub;

   group admin_group {
       user_admin -&gt; createuser;
       user_admin -&gt; editgranja;
       user_admin -&gt; editweb;
       user_admin -&gt; editcouch;
       user_admin -&gt; editzb;
   }

   group user_group {
       user_rights -&gt; response;

   }
}
</desc>
  <rect fill="rgb(243,152,0)" height="220" style="filter:url(#filter_blur)" width="528" x="56" y="830" />
  <rect fill="rgb(243,152,0)" height="60" style="filter:url(#filter_blur)" width="144" x="56" y="1070" />
  <rect fill="rgb(243,152,0)" height="380" style="filter:url(#filter_blur)" width="336" x="56" y="1230" />
  <rect fill="rgb(243,152,0)" height="60" style="filter:url(#filter_blur)" width="336" x="56" y="1630" />
  <rect fill="rgb(0,0,0)" height="40" stroke="rgb(0,0,0)" style="filter:url(#filter_blur);opacity:0.7;fill-opacity:1" width="128" x="67" y="46" />
  <rect fill="rgb(0,0,0)" height="40" stroke="rgb(0,0,0)" style="filter:url(#filter_blur);opacity:0.7;fill-opacity:1" width="128" x="67" y="126" />
  <rect fill="rgb(0,0,0)" height="40" stroke="rgb(0,0,0)" style="filter:url(#filter_blur);opacity:0.7;fill-opacity:1" width="128" x="451" y="126" />
  <rect fill="rgb(0,0,0)" height="40" stroke="rgb(0,0,0)" style="filter:url(#filter_blur);opacity:0.7;fill-opacity:1" width="128" x="451" y="366" />
  <rect fill="rgb(0,0,0)" height="40" stroke="rgb(0,0,0)" style="filter:url(#filter_blur);opacity:0.7;fill-opacity:1" width="128" x="67" y="446" />
  <rect fill="rgb(0,0,0)" height="40" stroke="rgb(0,0,0)" style="filter:url(#filter_blur);opacity:0.7;fill-opacity:1" width="128" x="259" y="446" />
  <rect fill="rgb(0,0,0)" height="40" stroke="rgb(0,0,0)" style="filter:url(#filter_blur);opacity:0.7;fill-opacity:1" width="128" x="259" y="606" />
  <rect fill="rgb(0,0,0)" height="40" stroke="rgb(0,0,0)" style="filter:url(#filter_blur);opacity:0.7;fill-opacity:1" width="128" x="451" y="446" />
  <rect fill="rgb(0,0,0)" height="40" stroke="rgb(0,0,0)" style="filter:url(#filter_blur);opacity:0.7;fill-opacity:1" width="128" x="451" y="526" />
  <rect fill="rgb(0,0,0)" height="40" stroke="rgb(0,0,0)" style="filter:url(#filter_blur);opacity:0.7;fill-opacity:1" width="128" x="451" y="606" />
  <rect fill="rgb(0,0,0)" height="40" stroke="rgb(0,0,0)" style="filter:url(#filter_blur);opacity:0.7;fill-opacity:1" width="128" x="451" y="686" />
  <rect fill="rgb(0,0,0)" height="40" stroke="rgb(0,0,0)" style="filter:url(#filter_blur);opacity:0.7;fill-opacity:1" width="128" x="67" y="766" />
  <rect fill="rgb(0,0,0)" height="40" stroke="rgb(0,0,0)" style="filter:url(#filter_blur);opacity:0.7;fill-opacity:1" width="128" x="67" y="846" />
  <rect fill="rgb(0,0,0)" height="40" stroke="rgb(0,0,0)" style="filter:url(#filter_blur);opacity:0.7;fill-opacity:1" width="128" x="259" y="846" />
  <rect fill="rgb(0,0,0)" height="40" stroke="rgb(0,0,0)" style="filter:url(#filter_blur);opacity:0.7;fill-opacity:1" width="128" x="259" y="1006" />
  <rect fill="rgb(0,0,0)" height="40" stroke="rgb(0,0,0)" style="filter:url(#filter_blur);opacity:0.7;fill-opacity:1" width="128" x="451" y="846" />
  <rect fill="rgb(0,0,0)" height="40" stroke="rgb(0,0,0)" style="filter:url(#filter_blur);opacity:0.7;fill-opacity:1" width="128" x="451" y="926" />
  <rect fill="rgb(0,0,0)" height="40" stroke="rgb(0,0,0)" style="filter:url(#filter_blur);opacity:0.7;fill-opacity:1" width="128" x="67" y="1086" />
  <rect fill="rgb(0,0,0)" height="40" stroke="rgb(0,0,0)" style="filter:url(#filter_blur);opacity:0.7;fill-opacity:1" width="128" x="67" y="1166" />
  <rect fill="rgb(0,0,0)" height="40" stroke="rgb(0,0,0)" style="filter:url(#filter_blur);opacity:0.7;fill-opacity:1" width="128" x="643" y="126" />
  <rect fill="rgb(0,0,0)" height="40" stroke="rgb(0,0,0)" style="filter:url(#filter_blur);opacity:0.7;fill-opacity:1" width="128" x="643" y="206" />
  <rect fill="rgb(0,0,0)" height="40" stroke="rgb(0,0,0)" style="filter:url(#filter_blur);opacity:0.7;fill-opacity:1" width="128" x="643" y="286" />
  <rect fill="rgb(0,0,0)" height="40" stroke="rgb(0,0,0)" style="filter:url(#filter_blur);opacity:0.7;fill-opacity:1" width="128" x="67" y="1246" />
  <rect fill="rgb(0,0,0)" height="40" stroke="rgb(0,0,0)" style="filter:url(#filter_blur);opacity:0.7;fill-opacity:1" width="128" x="259" y="1246" />
  <rect fill="rgb(0,0,0)" height="40" stroke="rgb(0,0,0)" style="filter:url(#filter_blur);opacity:0.7;fill-opacity:1" width="128" x="259" y="1326" />
  <rect fill="rgb(0,0,0)" height="40" stroke="rgb(0,0,0)" style="filter:url(#filter_blur);opacity:0.7;fill-opacity:1" width="128" x="259" y="1406" />
  <rect fill="rgb(0,0,0)" height="40" stroke="rgb(0,0,0)" style="filter:url(#filter_blur);opacity:0.7;fill-opacity:1" width="128" x="259" y="1486" />
  <rect fill="rgb(0,0,0)" height="40" stroke="rgb(0,0,0)" style="filter:url(#filter_blur);opacity:0.7;fill-opacity:1" width="128" x="259" y="1566" />
  <rect fill="rgb(0,0,0)" height="40" stroke="rgb(0,0,0)" style="filter:url(#filter_blur);opacity:0.7;fill-opacity:1" width="128" x="67" y="1646" />
  <rect fill="rgb(0,0,0)" height="40" stroke="rgb(0,0,0)" style="filter:url(#filter_blur);opacity:0.7;fill-opacity:1" width="128" x="259" y="1646" />
  <rect fill="rgb(0,0,0)" height="40" stroke="rgb(0,0,0)" style="filter:url(#filter_blur);opacity:0.7;fill-opacity:1" width="128" x="259" y="126" />
  <rect fill="rgb(0,0,0)" height="40" stroke="rgb(0,0,0)" style="filter:url(#filter_blur);opacity:0.7;fill-opacity:1" width="128" x="643" y="366" />
  <rect fill="rgb(255,255,255)" height="40" stroke="rgb(0,0,0)" width="128" x="64" y="40" />
  <text fill="rgb(0,0,0)" font-family="sansserif" font-size="11" font-style="normal" font-weight="normal" x="89" y="66">ejeacuicola.mx</text>
  <rect fill="rgb(255,255,255)" height="40" stroke="rgb(0,0,0)" width="128" x="64" y="120" />
  <text fill="rgb(0,0,0)" font-family="sansserif" font-size="11" font-style="normal" font-weight="normal" x="98" y="145">/index.html</text>
  <ellipse cx="64" cy="120" fill="pink" rx="12" ry="12" stroke="rgb(0,0,0)" />
  <text fill="rgb(0,0,0)" font-family="sansserif" font-size="11" font-style="normal" font-weight="normal" x="61" y="124">0</text>
  <rect fill="rgb(255,255,255)" height="40" stroke="rgb(0,0,0)" width="128" x="448" y="120" />
  <text fill="rgb(0,0,0)" font-family="sansserif" font-size="11" font-style="normal" font-weight="normal" x="475" y="145">User logged-in</text>
  <rect fill="rgb(255,255,255)" height="40" stroke="rgb(0,0,0)" width="128" x="448" y="360" />
  <text fill="rgb(0,0,0)" font-family="sansserif" font-size="11" font-style="normal" font-weight="normal" x="470" y="385">User logged-out</text>
  <rect fill="rgb(255,255,255)" height="40" stroke="rgb(0,0,0)" width="128" x="64" y="440" />
  <text fill="rgb(0,0,0)" font-family="sansserif" font-size="11" font-style="normal" font-weight="normal" x="107" y="466">/wamp/</text>
  <rect fill="rgb(255,255,255)" height="40" stroke="rgb(0,0,0)" width="128" x="256" y="440" />
  <text fill="rgb(0,0,0)" font-family="sansserif" font-size="11" font-style="normal" font-weight="normal" x="303" y="465">datos/</text>
  <rect fill="rgb(255,255,255)" height="40" stroke="rgb(0,0,0)" width="128" x="256" y="600" />
  <text fill="rgb(0,0,0)" font-family="sansserif" font-size="11" font-style="normal" font-weight="normal" x="295" y="625">sensores/</text>
  <rect fill="rgb(255,255,255)" height="40" stroke="rgb(0,0,0)" width="128" x="448" y="440" />
  <text fill="rgb(0,0,0)" font-family="sansserif" font-size="11" font-style="normal" font-weight="normal" x="488" y="464">Data RPC</text>
  <rect fill="rgb(255,255,255)" height="40" stroke="rgb(0,0,0)" width="128" x="448" y="520" />
  <text fill="rgb(0,0,0)" font-family="sansserif" font-size="11" font-style="normal" font-weight="normal" x="478" y="544">Data PubSub</text>
  <rect fill="rgb(255,255,255)" height="40" stroke="rgb(0,0,0)" width="128" x="448" y="600" />
  <text fill="rgb(0,0,0)" font-family="sansserif" font-size="11" font-style="normal" font-weight="normal" x="480" y="624">Sensors RPC</text>
  <rect fill="rgb(255,255,255)" height="40" stroke="rgb(0,0,0)" width="128" x="448" y="680" />
  <text fill="rgb(0,0,0)" font-family="sansserif" font-size="11" font-style="normal" font-weight="normal" x="470" y="704">Sensors PubSub</text>
  <rect fill="rgb(255,255,255)" height="40" stroke="rgb(0,0,0)" width="128" x="64" y="760" />
  <text fill="rgb(0,0,0)" font-family="sansserif" font-size="11" font-style="normal" font-weight="normal" x="85" y="784">WAMP DATA API</text>
  <rect fill="rgb(255,255,255)" height="40" stroke="rgb(0,0,0)" width="128" x="64" y="840" />
  <text fill="rgb(0,0,0)" font-family="sansserif" font-size="11" font-style="normal" font-weight="normal" x="86" y="864">RPC Commands</text>
  <rect fill="rgb(255,255,255)" height="40" stroke="rgb(0,0,0)" width="128" x="256" y="840" />
  <text fill="rgb(0,0,0)" font-family="sansserif" font-size="11" font-style="normal" font-weight="normal" x="296" y="865">rpc_login</text>
  <rect fill="rgb(255,255,255)" height="40" stroke="rgb(0,0,0)" width="128" x="256" y="1000" />
  <text fill="rgb(0,0,0)" font-family="sansserif" font-size="11" font-style="normal" font-weight="normal" x="291" y="1025">rpc_logout</text>
  <rect fill="rgb(255,255,255)" height="40" stroke="rgb(0,0,0)" width="128" x="448" y="840" />
  <text fill="rgb(0,0,0)" font-family="sansserif" font-size="11" font-style="normal" font-weight="normal" x="478" y="865">rpc_loggedIn</text>
  <rect fill="rgb(255,255,255)" height="40" stroke="rgb(0,0,0)" width="128" x="448" y="920" />
  <text fill="rgb(0,0,0)" font-family="sansserif" font-size="11" font-style="normal" font-weight="normal" x="473" y="945">rpc_loggedOut</text>
  <rect fill="rgb(255,255,255)" height="40" stroke="rgb(0,0,0)" width="128" x="64" y="1080" />
  <text fill="rgb(0,0,0)" font-family="sansserif" font-size="11" font-style="normal" font-weight="normal" x="80" y="1100">Publish/Subscribe</text>
  <text fill="rgb(0,0,0)" font-family="sansserif" font-size="11" font-style="normal" font-weight="normal" x="111" y="1110">Events</text>
  <rect fill="rgb(255,255,255)" height="40" stroke="rgb(0,0,0)" width="128" x="64" y="1160" />
  <text fill="rgb(0,0,0)" font-family="sansserif" font-size="11" font-style="normal" font-weight="normal" x="78" y="1184">WAMP SENSOR API</text>
  <rect fill="rgb(255,255,255)" height="40" stroke="rgb(0,0,0)" width="128" x="640" y="120" />
  <text fill="rgb(0,0,0)" font-family="sansserif" font-size="11" font-style="normal" font-weight="normal" x="668" y="144">User is ADMIN</text>
  <ellipse cx="640" cy="120" fill="pink" rx="12" ry="12" stroke="rgb(0,0,0)" />
  <text fill="rgb(0,0,0)" font-family="sansserif" font-size="11" font-style="normal" font-weight="normal" x="637" y="124">1</text>
  <rect fill="rgb(255,255,255)" height="40" stroke="rgb(0,0,0)" width="128" x="640" y="200" />
  <text fill="rgb(0,0,0)" font-family="sansserif" font-size="11" font-style="normal" font-weight="normal" x="654" y="224">User is Contributor</text>
  <ellipse cx="640" cy="200" fill="pink" rx="12" ry="12" stroke="rgb(0,0,0)" />
  <text fill="rgb(0,0,0)" font-family="sansserif" font-size="11" font-style="normal" font-weight="normal" x="637" y="204">2</text>
  <rect fill="rgb(255,255,255)" height="40" stroke="rgb(0,0,0)" width="128" x="640" y="280" />
  <text fill="rgb(0,0,0)" font-family="sansserif" font-size="11" font-style="normal" font-weight="normal" x="680" y="305">dologout</text>
  <rect fill="rgb(255,255,255)" height="40" stroke="rgb(0,0,0)" width="128" x="64" y="1240" />
  <text fill="rgb(0,0,0)" font-family="sansserif" font-size="11" font-style="normal" font-weight="normal" x="98" y="1265">user_admin</text>
  <ellipse cx="64" cy="1240" fill="pink" rx="12" ry="12" stroke="rgb(0,0,0)" />
  <text fill="rgb(0,0,0)" font-family="sansserif" font-size="11" font-style="normal" font-weight="normal" x="61" y="1244">1</text>
  <rect fill="rgb(255,255,255)" height="40" stroke="rgb(0,0,0)" width="128" x="256" y="1240" />
  <text fill="rgb(0,0,0)" font-family="sansserif" font-size="11" font-style="normal" font-weight="normal" x="293" y="1264">createuser</text>
  <rect fill="rgb(255,255,255)" height="40" stroke="rgb(0,0,0)" width="128" x="256" y="1320" />
  <text fill="rgb(0,0,0)" font-family="sansserif" font-size="11" font-style="normal" font-weight="normal" x="294" y="1346">editgranja</text>
  <rect fill="rgb(255,255,255)" height="40" stroke="rgb(0,0,0)" width="128" x="256" y="1400" />
  <text fill="rgb(0,0,0)" font-family="sansserif" font-size="11" font-style="normal" font-weight="normal" x="300" y="1424">editweb</text>
  <rect fill="rgb(255,255,255)" height="40" stroke="rgb(0,0,0)" width="128" x="256" y="1480" />
  <text fill="rgb(0,0,0)" font-family="sansserif" font-size="11" font-style="normal" font-weight="normal" x="294" y="1504">editcouch</text>
  <rect fill="rgb(255,255,255)" height="40" stroke="rgb(0,0,0)" width="128" x="256" y="1560" />
  <text fill="rgb(0,0,0)" font-family="sansserif" font-size="11" font-style="normal" font-weight="normal" x="304" y="1584">editzb</text>
  <rect fill="rgb(255,255,255)" height="40" stroke="rgb(0,0,0)" width="128" x="64" y="1640" />
  <text fill="rgb(0,0,0)" font-family="sansserif" font-size="11" font-style="normal" font-weight="normal" x="100" y="1665">user_rights</text>
  <ellipse cx="64" cy="1640" fill="pink" rx="12" ry="12" stroke="rgb(0,0,0)" />
  <text fill="rgb(0,0,0)" font-family="sansserif" font-size="11" font-style="normal" font-weight="normal" x="61" y="1644">2</text>
  <rect fill="rgb(255,255,255)" height="40" stroke="rgb(0,0,0)" width="128" x="256" y="1640" />
  <text fill="rgb(0,0,0)" font-family="sansserif" font-size="11" font-style="normal" font-weight="normal" x="297" y="1665">response</text>
  <rect fill="rgb(255,255,255)" height="40" stroke="rgb(0,0,0)" width="128" x="256" y="120" />
  <text fill="rgb(0,0,0)" font-family="sansserif" font-size="11" font-style="normal" font-weight="normal" x="299" y="144">content</text>
  <rect fill="rgb(255,255,255)" height="40" stroke="rgb(0,0,0)" width="128" x="640" y="360" />
  <text fill="rgb(0,0,0)" font-family="sansserif" font-size="11" font-style="normal" font-weight="normal" x="684" y="385">dologin</text>
  <path d="M 192 140 L 248 140" fill="none" stroke="rgb(0,0,0)" />
  <polygon fill="rgb(0,0,0)" points="255,140 248,136 248,144 255,140" stroke="rgb(0,0,0)" />
  <path d="M 576 140 L 608 140" fill="none" stroke="rgb(0,0,0)" />
  <path d="M 608 140 L 608 300" fill="none" stroke="rgb(0,0,0)" />
  <path d="M 608 300 L 632 300" fill="none" stroke="rgb(0,0,0)" />
  <polygon fill="rgb(0,0,0)" points="639,300 632,296 632,304 639,300" stroke="rgb(0,0,0)" />
  <path d="M 576 140 L 608 140" fill="none" stroke="rgb(0,0,0)" />
  <path d="M 608 140 L 608 220" fill="none" stroke="rgb(0,0,0)" />
  <path d="M 608 220 L 632 220" fill="none" stroke="rgb(0,0,0)" />
  <polygon fill="rgb(0,0,0)" points="639,220 632,216 632,224 639,220" stroke="rgb(0,0,0)" />
  <path d="M 576 140 L 632 140" fill="none" stroke="rgb(0,0,0)" />
  <polygon fill="rgb(0,0,0)" points="639,140 632,136 632,144 639,140" stroke="rgb(0,0,0)" />
  <path d="M 576 380 L 632 380" fill="none" stroke="rgb(0,0,0)" />
  <polygon fill="rgb(0,0,0)" points="639,380 632,376 632,384 639,380" stroke="rgb(0,0,0)" />
  <path d="M 192 460 L 224 460" fill="none" stroke="rgb(0,0,0)" />
  <path d="M 224 460 L 224 620" fill="none" stroke="rgb(0,0,0)" />
  <path d="M 224 620 L 248 620" fill="none" stroke="rgb(0,0,0)" />
  <polygon fill="rgb(0,0,0)" points="255,620 248,616 248,624 255,620" stroke="rgb(0,0,0)" />
  <path d="M 192 460 L 248 460" fill="none" stroke="rgb(0,0,0)" />
  <polygon fill="rgb(0,0,0)" points="255,460 248,456 248,464 255,460" stroke="rgb(0,0,0)" />
  <path d="M 384 460 L 416 460" fill="none" stroke="rgb(0,0,0)" />
  <path d="M 416 460 L 416 540" fill="none" stroke="rgb(0,0,0)" />
  <path d="M 416 540 L 440 540" fill="none" stroke="rgb(0,0,0)" />
  <polygon fill="rgb(0,0,0)" points="447,540 440,536 440,544 447,540" stroke="rgb(0,0,0)" />
  <path d="M 384 460 L 440 460" fill="none" stroke="rgb(0,0,0)" />
  <polygon fill="rgb(0,0,0)" points="447,460 440,456 440,464 447,460" stroke="rgb(0,0,0)" />
  <path d="M 384 620 L 440 620" fill="none" stroke="rgb(0,0,0)" />
  <polygon fill="rgb(0,0,0)" points="447,620 440,616 440,624 447,620" stroke="rgb(0,0,0)" />
  <path d="M 384 620 L 416 620" fill="none" stroke="rgb(0,0,0)" />
  <path d="M 416 620 L 416 700" fill="none" stroke="rgb(0,0,0)" />
  <path d="M 416 700 L 440 700" fill="none" stroke="rgb(0,0,0)" />
  <polygon fill="rgb(0,0,0)" points="447,700 440,696 440,704 447,700" stroke="rgb(0,0,0)" />
  <path d="M 384 140 L 416 140" fill="none" stroke="rgb(0,0,0)" />
  <path d="M 416 140 L 416 380" fill="none" stroke="rgb(0,0,0)" />
  <path d="M 416 380 L 440 380" fill="none" stroke="rgb(0,0,0)" />
  <polygon fill="rgb(0,0,0)" points="447,380 440,376 440,384 447,380" stroke="rgb(0,0,0)" />
  <path d="M 384 140 L 440 140" fill="none" stroke="rgb(0,0,0)" />
  <polygon fill="rgb(0,0,0)" points="447,140 440,136 440,144 447,140" stroke="rgb(0,0,0)" />
  <path d="M 192 860 L 248 860" fill="none" stroke="rgb(0,0,0)" />
  <polygon fill="rgb(0,0,0)" points="255,860 248,856 248,864 255,860" stroke="rgb(0,0,0)" />
  <path d="M 192 860 L 224 860" fill="none" stroke="rgb(0,0,0)" />
  <path d="M 224 860 L 224 1020" fill="none" stroke="rgb(0,0,0)" />
  <path d="M 224 1020 L 248 1020" fill="none" stroke="rgb(0,0,0)" />
  <polygon fill="rgb(0,0,0)" points="255,1020 248,1016 248,1024 255,1020" stroke="rgb(0,0,0)" />
  <path d="M 384 860 L 440 860" fill="none" stroke="rgb(0,0,0)" />
  <polygon fill="rgb(0,0,0)" points="447,860 440,856 440,864 447,860" stroke="rgb(0,0,0)" />
  <path d="M 384 860 L 416 860" fill="none" stroke="rgb(0,0,0)" />
  <path d="M 416 860 L 416 940" fill="none" stroke="rgb(0,0,0)" />
  <path d="M 416 940 L 440 940" fill="none" stroke="rgb(0,0,0)" />
  <polygon fill="rgb(0,0,0)" points="447,940 440,936 440,944 447,940" stroke="rgb(0,0,0)" />
  <path d="M 384 1020 L 432 1020" fill="none" stroke="rgb(0,0,0)" />
  <path d="M 432 1020 L 432 940" fill="none" stroke="rgb(0,0,0)" />
  <path d="M 432 940 L 440 940" fill="none" stroke="rgb(0,0,0)" />
  <polygon fill="rgb(0,0,0)" points="447,940 440,936 440,944 447,940" stroke="rgb(0,0,0)" />
  <path d="M 192 1260 L 224 1260" fill="none" stroke="rgb(0,0,0)" />
  <path d="M 224 1260 L 224 1580" fill="none" stroke="rgb(0,0,0)" />
  <path d="M 224 1580 L 248 1580" fill="none" stroke="rgb(0,0,0)" />
  <polygon fill="rgb(0,0,0)" points="255,1580 248,1576 248,1584 255,1580" stroke="rgb(0,0,0)" />
  <path d="M 192 1260 L 248 1260" fill="none" stroke="rgb(0,0,0)" />
  <polygon fill="rgb(0,0,0)" points="255,1260 248,1256 248,1264 255,1260" stroke="rgb(0,0,0)" />
  <path d="M 192 1260 L 224 1260" fill="none" stroke="rgb(0,0,0)" />
  <path d="M 224 1260 L 224 1420" fill="none" stroke="rgb(0,0,0)" />
  <path d="M 224 1420 L 248 1420" fill="none" stroke="rgb(0,0,0)" />
  <polygon fill="rgb(0,0,0)" points="255,1420 248,1416 248,1424 255,1420" stroke="rgb(0,0,0)" />
  <path d="M 192 1260 L 224 1260" fill="none" stroke="rgb(0,0,0)" />
  <path d="M 224 1260 L 224 1500" fill="none" stroke="rgb(0,0,0)" />
  <path d="M 224 1500 L 248 1500" fill="none" stroke="rgb(0,0,0)" />
  <polygon fill="rgb(0,0,0)" points="255,1500 248,1496 248,1504 255,1500" stroke="rgb(0,0,0)" />
  <path d="M 192 1260 L 224 1260" fill="none" stroke="rgb(0,0,0)" />
  <path d="M 224 1260 L 224 1340" fill="none" stroke="rgb(0,0,0)" />
  <path d="M 224 1340 L 248 1340" fill="none" stroke="rgb(0,0,0)" />
  <polygon fill="rgb(0,0,0)" points="255,1340 248,1336 248,1344 255,1340" stroke="rgb(0,0,0)" />
  <path d="M 192 1660 L 248 1660" fill="none" stroke="rgb(0,0,0)" />
  <polygon fill="rgb(0,0,0)" points="255,1660 248,1656 248,1664 255,1660" stroke="rgb(0,0,0)" />
</svg>
