<?xml version='1.0' encoding='UTF-8'?>
<!DOCTYPE svg PUBLIC "-//W3C//DTD SVG 1.0//EN" "http://www.w3.org/TR/2001/REC-SVG-20010904/DTD/svg10.dtd">
<svg viewBox="0 0 1024 1350" xmlns="http://www.w3.org/2000/svg" xmlns:inkspace="http://www.inkscape.org/namespaces/inkscape" xmlns:xlink="http://www.w3.org/1999/xlink">
  <defs id="defs_block">
    <filter height="1.504" id="filter_blur" inkspace:collect="always" width="1.1575" x="-0.07875" y="-0.252">
      <feGaussianBlur id="feGaussianBlur3780" inkspace:collect="always" stdDeviation="4.2" />
    </filter>
  </defs>
  <title>blockdiag</title>
  <desc>seqdiag {

  user     -&gt; browser [label = "Login with\nusername &amp; password"];
              browser -&gt; browser-app [label = "Click login button"];

              === Login w/CORRECT credentials ===

              browser-app  -&gt; wampserver [label = "WAMP RPC:login"];
                          wampserver -&gt; database [label = "POST /_session"];
                          wampserver &lt;- database [label = "HTTP RESPONSE"];
              browser-app  &lt;- wampserver [label = "WAMP PUB:loggedIn"];
              browser-app  -&gt; browser-app [label = "Trigger login\n events"];

              === Login w/INCORRECT credentials ===

              browser-app  -&gt; wampserver [label = "WAMP RPC:login"];
                          wampserver -&gt; database [label = "POST /_session"];
                          wampserver &lt;- database [label = "HTTP RESPONSE"];
              browser-app  &lt;- wampserver [label = "WAMP PUB:loggedOut"];
              browser-app  -&gt; browser-app [label = "Trigger loggegOut\n events"];

              === ===

              browser  &lt;- browser-app [label = "Update HTML"];
  user     &lt;- browser [label = "Show the user\n the updated site"];
}
</desc>
  <rect fill="rgb(0,0,0)" height="1176" style="filter:url(#filter_blur);opacity:0.7;fill-opacity:1" width="8" x="127" y="152" />
  <rect fill="rgb(0,0,0)" height="1130" style="filter:url(#filter_blur);opacity:0.7;fill-opacity:1" width="8" x="319" y="152" />
  <rect fill="rgb(0,0,0)" height="992" style="filter:url(#filter_blur);opacity:0.7;fill-opacity:1" width="8" x="511" y="216" />
  <rect fill="rgb(0,0,0)" height="190" style="filter:url(#filter_blur);opacity:0.7;fill-opacity:1" width="8" x="703" y="360" />
  <rect fill="rgb(0,0,0)" height="190" style="filter:url(#filter_blur);opacity:0.7;fill-opacity:1" width="8" x="703" y="784" />
  <rect fill="rgb(0,0,0)" height="62" style="filter:url(#filter_blur);opacity:0.7;fill-opacity:1" width="8" x="895" y="424" />
  <rect fill="rgb(0,0,0)" height="62" style="filter:url(#filter_blur);opacity:0.7;fill-opacity:1" width="8" x="895" y="848" />
  <rect fill="rgb(0,0,0)" height="40" stroke="rgb(0,0,0)" style="filter:url(#filter_blur);opacity:0.7;fill-opacity:1" width="128" x="67" y="46" />
  <rect fill="rgb(0,0,0)" height="40" stroke="rgb(0,0,0)" style="filter:url(#filter_blur);opacity:0.7;fill-opacity:1" width="128" x="259" y="46" />
  <rect fill="rgb(0,0,0)" height="40" stroke="rgb(0,0,0)" style="filter:url(#filter_blur);opacity:0.7;fill-opacity:1" width="128" x="451" y="46" />
  <rect fill="rgb(0,0,0)" height="40" stroke="rgb(0,0,0)" style="filter:url(#filter_blur);opacity:0.7;fill-opacity:1" width="128" x="643" y="46" />
  <rect fill="rgb(0,0,0)" height="40" stroke="rgb(0,0,0)" style="filter:url(#filter_blur);opacity:0.7;fill-opacity:1" width="128" x="835" y="46" />
  <path d="M 128 80 L 128 1338" fill="none" stroke="rgb(0,0,0)" stroke-dasharray="8 4" />
  <rect fill="moccasin" height="1176" stroke="rgb(0,0,0)" width="8" x="124" y="146" />
  <path d="M 320 80 L 320 1338" fill="none" stroke="rgb(0,0,0)" stroke-dasharray="8 4" />
  <rect fill="moccasin" height="1130" stroke="rgb(0,0,0)" width="8" x="316" y="146" />
  <path d="M 512 80 L 512 1338" fill="none" stroke="rgb(0,0,0)" stroke-dasharray="8 4" />
  <rect fill="moccasin" height="992" stroke="rgb(0,0,0)" width="8" x="508" y="210" />
  <path d="M 704 80 L 704 1338" fill="none" stroke="rgb(0,0,0)" stroke-dasharray="8 4" />
  <rect fill="moccasin" height="190" stroke="rgb(0,0,0)" width="8" x="700" y="354" />
  <rect fill="moccasin" height="190" stroke="rgb(0,0,0)" width="8" x="700" y="778" />
  <path d="M 896 80 L 896 1338" fill="none" stroke="rgb(0,0,0)" stroke-dasharray="8 4" />
  <rect fill="moccasin" height="62" stroke="rgb(0,0,0)" width="8" x="892" y="418" />
  <rect fill="moccasin" height="62" stroke="rgb(0,0,0)" width="8" x="892" y="842" />
  <rect fill="rgb(255,255,255)" height="40" stroke="rgb(0,0,0)" width="128" x="64" y="40" />
  <text fill="rgb(0,0,0)" font-family="sansserif" font-size="11" font-style="normal" font-weight="normal" x="117" y="64">user</text>
  <rect fill="rgb(255,255,255)" height="40" stroke="rgb(0,0,0)" width="128" x="256" y="40" />
  <text fill="rgb(0,0,0)" font-family="sansserif" font-size="11" font-style="normal" font-weight="normal" x="299" y="64">browser</text>
  <rect fill="rgb(255,255,255)" height="40" stroke="rgb(0,0,0)" width="128" x="448" y="40" />
  <text fill="rgb(0,0,0)" font-family="sansserif" font-size="11" font-style="normal" font-weight="normal" x="480" y="65">browser-app</text>
  <rect fill="rgb(255,255,255)" height="40" stroke="rgb(0,0,0)" width="128" x="640" y="40" />
  <text fill="rgb(0,0,0)" font-family="sansserif" font-size="11" font-style="normal" font-weight="normal" x="673" y="65">wampserver</text>
  <rect fill="rgb(255,255,255)" height="40" stroke="rgb(0,0,0)" width="128" x="832" y="40" />
  <text fill="rgb(0,0,0)" font-family="sansserif" font-size="11" font-style="normal" font-weight="normal" x="873" y="64">database</text>
  <path d="M 136 146 L 312 146" fill="none" stroke="rgb(0,0,0)" />
  <polygon fill="rgb(0,0,0)" points="304,142 312,146 304,150" stroke="rgb(0,0,0)" />
  <path d="M 328 210 L 504 210" fill="none" stroke="rgb(0,0,0)" />
  <polygon fill="rgb(0,0,0)" points="496,206 504,210 496,214" stroke="rgb(0,0,0)" />
  <path d="M 520 354 L 696 354" fill="none" stroke="rgb(0,0,0)" />
  <polygon fill="rgb(0,0,0)" points="688,350 696,354 688,358" stroke="rgb(0,0,0)" />
  <path d="M 712 418 L 888 418" fill="none" stroke="rgb(0,0,0)" />
  <polygon fill="rgb(0,0,0)" points="880,414 888,418 880,422" stroke="rgb(0,0,0)" />
  <path d="M 712 480 L 888 480" fill="none" stroke="rgb(0,0,0)" />
  <polygon fill="rgb(0,0,0)" points="720,476 712,480 720,484" stroke="rgb(0,0,0)" />
  <path d="M 520 544 L 696 544" fill="none" stroke="rgb(0,0,0)" />
  <polygon fill="rgb(0,0,0)" points="528,540 520,544 528,548" stroke="rgb(0,0,0)" />
  <path d="M 520 618 L 608 618" fill="none" stroke="rgb(0,0,0)" />
  <path d="M 608 618 L 608 634" fill="none" stroke="rgb(0,0,0)" />
  <path d="M 608 634 L 520 634" fill="none" stroke="rgb(0,0,0)" />
  <polygon fill="rgb(0,0,0)" points="528,630 520,634 528,638" stroke="rgb(0,0,0)" />
  <path d="M 520 778 L 696 778" fill="none" stroke="rgb(0,0,0)" />
  <polygon fill="rgb(0,0,0)" points="688,774 696,778 688,782" stroke="rgb(0,0,0)" />
  <path d="M 712 842 L 888 842" fill="none" stroke="rgb(0,0,0)" />
  <polygon fill="rgb(0,0,0)" points="880,838 888,842 880,846" stroke="rgb(0,0,0)" />
  <path d="M 712 904 L 888 904" fill="none" stroke="rgb(0,0,0)" />
  <polygon fill="rgb(0,0,0)" points="720,900 712,904 720,908" stroke="rgb(0,0,0)" />
  <path d="M 520 968 L 696 968" fill="none" stroke="rgb(0,0,0)" />
  <polygon fill="rgb(0,0,0)" points="528,964 520,968 528,972" stroke="rgb(0,0,0)" />
  <path d="M 520 1042 L 608 1042" fill="none" stroke="rgb(0,0,0)" />
  <path d="M 608 1042 L 608 1058" fill="none" stroke="rgb(0,0,0)" />
  <path d="M 608 1058 L 520 1058" fill="none" stroke="rgb(0,0,0)" />
  <polygon fill="rgb(0,0,0)" points="528,1054 520,1058 528,1062" stroke="rgb(0,0,0)" />
  <path d="M 328 1202 L 504 1202" fill="none" stroke="rgb(0,0,0)" />
  <polygon fill="rgb(0,0,0)" points="336,1198 328,1202 336,1206" stroke="rgb(0,0,0)" />
  <path d="M 136 1276 L 312 1276" fill="none" stroke="rgb(0,0,0)" />
  <polygon fill="rgb(0,0,0)" points="144,1272 136,1276 144,1280" stroke="rgb(0,0,0)" />
  <text fill="rgb(0,0,0)" font-family="sansserif" font-size="11" font-style="normal" font-weight="normal" x="140" y="132">Login with</text>
  <text fill="rgb(0,0,0)" font-family="sansserif" font-size="11" font-style="normal" font-weight="normal" x="140" y="144">username &amp; password</text>
  <text fill="rgb(0,0,0)" font-family="sansserif" font-size="11" font-style="normal" font-weight="normal" x="332" y="208">Click login button</text>
  <text fill="rgb(0,0,0)" font-family="sansserif" font-size="11" font-style="normal" font-weight="normal" x="524" y="352">WAMP RPC:login</text>
  <text fill="rgb(0,0,0)" font-family="sansserif" font-size="11" font-style="normal" font-weight="normal" x="716" y="416">POST /_session</text>
  <text fill="rgb(0,0,0)" font-family="sansserif" font-size="11" font-style="normal" font-weight="normal" x="799" y="478">HTTP RESPONSE</text>
  <text fill="rgb(0,0,0)" font-family="sansserif" font-size="11" font-style="normal" font-weight="normal" x="588" y="542">WAMP PUB:loggedIn</text>
  <text fill="rgb(0,0,0)" font-family="sansserif" font-size="11" font-style="normal" font-weight="normal" x="520" y="606">Trigger login</text>
  <text fill="rgb(0,0,0)" font-family="sansserif" font-size="11" font-style="normal" font-weight="normal" x="520" y="616">events</text>
  <text fill="rgb(0,0,0)" font-family="sansserif" font-size="11" font-style="normal" font-weight="normal" x="524" y="776">WAMP RPC:login</text>
  <text fill="rgb(0,0,0)" font-family="sansserif" font-size="11" font-style="normal" font-weight="normal" x="716" y="840">POST /_session</text>
  <text fill="rgb(0,0,0)" font-family="sansserif" font-size="11" font-style="normal" font-weight="normal" x="799" y="902">HTTP RESPONSE</text>
  <text fill="rgb(0,0,0)" font-family="sansserif" font-size="11" font-style="normal" font-weight="normal" x="577" y="966">WAMP PUB:loggedOut</text>
  <text fill="rgb(0,0,0)" font-family="sansserif" font-size="11" font-style="normal" font-weight="normal" x="520" y="1030">Trigger loggegOut</text>
  <text fill="rgb(0,0,0)" font-family="sansserif" font-size="11" font-style="normal" font-weight="normal" x="520" y="1040">events</text>
  <text fill="rgb(0,0,0)" font-family="sansserif" font-size="11" font-style="normal" font-weight="normal" x="432" y="1200">Update HTML</text>
  <text fill="rgb(0,0,0)" font-family="sansserif" font-size="11" font-style="normal" font-weight="normal" x="238" y="1262">Show the user</text>
  <text fill="rgb(0,0,0)" font-family="sansserif" font-size="11" font-style="normal" font-weight="normal" x="227" y="1274">the updated site</text>
  <path d="M 40 277 L 422 277" fill="none" stroke="rgb(0,0,0)" />
  <path d="M 40 281 L 422 281" fill="none" stroke="rgb(0,0,0)" />
  <path d="M 601 277 L 984 277" fill="none" stroke="rgb(0,0,0)" />
  <path d="M 601 281 L 984 281" fill="none" stroke="rgb(0,0,0)" />
  <rect fill="rgb(208,208,208)" height="19" stroke="rgb(0,0,0)" width="179" x="422" y="270" />
  <text fill="rgb(0,0,0)" font-family="sansserif" font-size="11" font-style="normal" font-weight="normal" x="432" y="285">Login w/CORRECT credentials</text>
  <path d="M 40 701 L 417 701" fill="none" stroke="rgb(0,0,0)" />
  <path d="M 40 705 L 417 705" fill="none" stroke="rgb(0,0,0)" />
  <path d="M 607 701 L 984 701" fill="none" stroke="rgb(0,0,0)" />
  <path d="M 607 705 L 984 705" fill="none" stroke="rgb(0,0,0)" />
  <rect fill="rgb(208,208,208)" height="19" stroke="rgb(0,0,0)" width="190" x="417" y="694" />
  <text fill="rgb(0,0,0)" font-family="sansserif" font-size="11" font-style="normal" font-weight="normal" x="427" y="709">Login w/INCORRECT credentials</text>
  <path d="M 40 1126 L 510 1126" fill="none" stroke="rgb(0,0,0)" />
  <path d="M 40 1130 L 510 1130" fill="none" stroke="rgb(0,0,0)" />
  <path d="M 514 1126 L 984 1126" fill="none" stroke="rgb(0,0,0)" />
  <path d="M 514 1130 L 984 1130" fill="none" stroke="rgb(0,0,0)" />
  <rect fill="rgb(208,208,208)" height="4" stroke="rgb(0,0,0)" width="4" x="510" y="1126" />
</svg>
