<?xml version='1.0' encoding='UTF-8'?>
<!DOCTYPE svg PUBLIC "-//W3C//DTD SVG 1.0//EN" "http://www.w3.org/TR/2001/REC-SVG-20010904/DTD/svg10.dtd">
<svg viewBox="0 0 1408 1042" xmlns="http://www.w3.org/2000/svg" xmlns:inkspace="http://www.inkscape.org/namespaces/inkscape" xmlns:xlink="http://www.w3.org/1999/xlink">
  <defs id="defs_block">
    <filter height="1.504" id="filter_blur" inkspace:collect="always" width="1.1575" x="-0.07875" y="-0.252">
      <feGaussianBlur id="feGaussianBlur3780" inkspace:collect="always" stdDeviation="4.2" />
    </filter>
  </defs>
  <title>blockdiag</title>
  <desc>seqdiag {
  tantan     -&gt; api.b [label = ".start()"];
  tantan     -&gt; api.b [label = ".start()"];
  tantan     -&gt; api.b [label = ".start()"];
  tantan     -&gt; browser [label = ".start()"];
              browser  -&gt; webserver [label = "GET /index.html"];
              browser  &lt;- webserver [label = "HTTP RESPONSE"];
              browser  -&gt; browser-app [label = "Trigger initial JavaScript App events"];
              browser  &lt;- browser-app [label = "Load views for logged-out users"];
              browser  -&gt; wampserver [label = "WAMP RPC:login"];
                          wampserver -&gt; database [label = "POST /_session"];
                          wampserver &lt;- database [label = "HTTP RESPONSE"];
              browser  &lt;- wampserver [label = "WAMP PUB:loggedIn or PUB:loggedOut"];
              browser  -&gt; browser-app [label = "Trigger login JavaScript App events"];
              browser  &lt;- browser-app [label = "Load views for logged-in users"];
}
</desc>
  <rect fill="rgb(0,0,0)" height="879" style="filter:url(#filter_blur);opacity:0.7;fill-opacity:1" width="8" x="127" y="141" />
  <rect fill="rgb(0,0,0)" height="879" style="filter:url(#filter_blur);opacity:0.7;fill-opacity:1" width="8" x="319" y="141" />
  <rect fill="rgb(0,0,0)" height="814" style="filter:url(#filter_blur);opacity:0.7;fill-opacity:1" width="8" x="323" y="206" />
  <rect fill="rgb(0,0,0)" height="749" style="filter:url(#filter_blur);opacity:0.7;fill-opacity:1" width="8" x="327" y="271" />
  <rect fill="rgb(0,0,0)" height="684" style="filter:url(#filter_blur);opacity:0.7;fill-opacity:1" width="8" x="511" y="336" />
  <rect fill="rgb(0,0,0)" height="62" style="filter:url(#filter_blur);opacity:0.7;fill-opacity:1" width="8" x="703" y="400" />
  <rect fill="rgb(0,0,0)" height="65" style="filter:url(#filter_blur);opacity:0.7;fill-opacity:1" width="8" x="895" y="526" />
  <rect fill="rgb(0,0,0)" height="65" style="filter:url(#filter_blur);opacity:0.7;fill-opacity:1" width="8" x="895" y="909" />
  <rect fill="rgb(0,0,0)" height="190" style="filter:url(#filter_blur);opacity:0.7;fill-opacity:1" width="8" x="1087" y="655" />
  <rect fill="rgb(0,0,0)" height="62" style="filter:url(#filter_blur);opacity:0.7;fill-opacity:1" width="8" x="1279" y="719" />
  <rect fill="rgb(0,0,0)" height="40" stroke="rgb(0,0,0)" style="filter:url(#filter_blur);opacity:0.7;fill-opacity:1" width="128" x="67" y="46" />
  <rect fill="rgb(0,0,0)" height="40" stroke="rgb(0,0,0)" style="filter:url(#filter_blur);opacity:0.7;fill-opacity:1" width="128" x="259" y="46" />
  <rect fill="rgb(0,0,0)" height="40" stroke="rgb(0,0,0)" style="filter:url(#filter_blur);opacity:0.7;fill-opacity:1" width="128" x="451" y="46" />
  <rect fill="rgb(0,0,0)" height="40" stroke="rgb(0,0,0)" style="filter:url(#filter_blur);opacity:0.7;fill-opacity:1" width="128" x="643" y="46" />
  <rect fill="rgb(0,0,0)" height="40" stroke="rgb(0,0,0)" style="filter:url(#filter_blur);opacity:0.7;fill-opacity:1" width="128" x="835" y="46" />
  <rect fill="rgb(0,0,0)" height="40" stroke="rgb(0,0,0)" style="filter:url(#filter_blur);opacity:0.7;fill-opacity:1" width="128" x="1027" y="46" />
  <rect fill="rgb(0,0,0)" height="40" stroke="rgb(0,0,0)" style="filter:url(#filter_blur);opacity:0.7;fill-opacity:1" width="128" x="1219" y="46" />
  <path d="M 128 80 L 128 1030" fill="none" stroke="rgb(0,0,0)" stroke-dasharray="8 4" />
  <rect fill="moccasin" height="879" stroke="rgb(0,0,0)" width="8" x="124" y="135" />
  <path d="M 320 80 L 320 1030" fill="none" stroke="rgb(0,0,0)" stroke-dasharray="8 4" />
  <rect fill="moccasin" height="879" stroke="rgb(0,0,0)" width="8" x="316" y="135" />
  <rect fill="moccasin" height="814" stroke="rgb(0,0,0)" width="8" x="320" y="200" />
  <rect fill="moccasin" height="749" stroke="rgb(0,0,0)" width="8" x="324" y="265" />
  <path d="M 512 80 L 512 1030" fill="none" stroke="rgb(0,0,0)" stroke-dasharray="8 4" />
  <rect fill="moccasin" height="684" stroke="rgb(0,0,0)" width="8" x="508" y="330" />
  <path d="M 704 80 L 704 1030" fill="none" stroke="rgb(0,0,0)" stroke-dasharray="8 4" />
  <rect fill="moccasin" height="62" stroke="rgb(0,0,0)" width="8" x="700" y="394" />
  <path d="M 896 80 L 896 1030" fill="none" stroke="rgb(0,0,0)" stroke-dasharray="8 4" />
  <rect fill="moccasin" height="65" stroke="rgb(0,0,0)" width="8" x="892" y="520" />
  <rect fill="moccasin" height="65" stroke="rgb(0,0,0)" width="8" x="892" y="903" />
  <path d="M 1088 80 L 1088 1030" fill="none" stroke="rgb(0,0,0)" stroke-dasharray="8 4" />
  <rect fill="moccasin" height="190" stroke="rgb(0,0,0)" width="8" x="1084" y="649" />
  <path d="M 1280 80 L 1280 1030" fill="none" stroke="rgb(0,0,0)" stroke-dasharray="8 4" />
  <rect fill="moccasin" height="62" stroke="rgb(0,0,0)" width="8" x="1276" y="713" />
  <rect fill="rgb(255,255,255)" height="40" stroke="rgb(0,0,0)" width="128" x="64" y="40" />
  <text fill="rgb(0,0,0)" font-family="sansserif" font-size="11" font-style="normal" font-weight="normal" x="111" y="64">tantan</text>
  <rect fill="rgb(255,255,255)" height="40" stroke="rgb(0,0,0)" width="128" x="256" y="40" />
  <text fill="rgb(0,0,0)" font-family="sansserif" font-size="11" font-style="normal" font-weight="normal" x="307" y="65">api.b</text>
  <rect fill="rgb(255,255,255)" height="40" stroke="rgb(0,0,0)" width="128" x="448" y="40" />
  <text fill="rgb(0,0,0)" font-family="sansserif" font-size="11" font-style="normal" font-weight="normal" x="491" y="64">browser</text>
  <rect fill="rgb(255,255,255)" height="40" stroke="rgb(0,0,0)" width="128" x="640" y="40" />
  <text fill="rgb(0,0,0)" font-family="sansserif" font-size="11" font-style="normal" font-weight="normal" x="678" y="64">webserver</text>
  <rect fill="rgb(255,255,255)" height="40" stroke="rgb(0,0,0)" width="128" x="832" y="40" />
  <text fill="rgb(0,0,0)" font-family="sansserif" font-size="11" font-style="normal" font-weight="normal" x="864" y="65">browser-app</text>
  <rect fill="rgb(255,255,255)" height="40" stroke="rgb(0,0,0)" width="128" x="1024" y="40" />
  <text fill="rgb(0,0,0)" font-family="sansserif" font-size="11" font-style="normal" font-weight="normal" x="1057" y="65">wampserver</text>
  <rect fill="rgb(255,255,255)" height="40" stroke="rgb(0,0,0)" width="128" x="1216" y="40" />
  <text fill="rgb(0,0,0)" font-family="sansserif" font-size="11" font-style="normal" font-weight="normal" x="1257" y="64">database</text>
  <path d="M 136 135 L 312 135" fill="none" stroke="rgb(0,0,0)" />
  <polygon fill="rgb(0,0,0)" points="304,131 312,135 304,139" stroke="rgb(0,0,0)" />
  <path d="M 136 200 L 312 200" fill="none" stroke="rgb(0,0,0)" />
  <polygon fill="rgb(0,0,0)" points="304,196 312,200 304,204" stroke="rgb(0,0,0)" />
  <path d="M 136 265 L 312 265" fill="none" stroke="rgb(0,0,0)" />
  <polygon fill="rgb(0,0,0)" points="304,261 312,265 304,269" stroke="rgb(0,0,0)" />
  <path d="M 136 330 L 504 330" fill="none" stroke="rgb(0,0,0)" />
  <polygon fill="rgb(0,0,0)" points="496,326 504,330 496,334" stroke="rgb(0,0,0)" />
  <path d="M 520 394 L 696 394" fill="none" stroke="rgb(0,0,0)" />
  <polygon fill="rgb(0,0,0)" points="688,390 696,394 688,398" stroke="rgb(0,0,0)" />
  <path d="M 520 456 L 696 456" fill="none" stroke="rgb(0,0,0)" />
  <polygon fill="rgb(0,0,0)" points="528,452 520,456 528,460" stroke="rgb(0,0,0)" />
  <path d="M 520 520 L 888 520" fill="none" stroke="rgb(0,0,0)" />
  <polygon fill="rgb(0,0,0)" points="880,516 888,520 880,524" stroke="rgb(0,0,0)" />
  <path d="M 520 585 L 888 585" fill="none" stroke="rgb(0,0,0)" />
  <polygon fill="rgb(0,0,0)" points="528,581 520,585 528,589" stroke="rgb(0,0,0)" />
  <path d="M 520 649 L 1080 649" fill="none" stroke="rgb(0,0,0)" />
  <polygon fill="rgb(0,0,0)" points="1072,645 1080,649 1072,653" stroke="rgb(0,0,0)" />
  <path d="M 1096 713 L 1272 713" fill="none" stroke="rgb(0,0,0)" />
  <polygon fill="rgb(0,0,0)" points="1264,709 1272,713 1264,717" stroke="rgb(0,0,0)" />
  <path d="M 1096 775 L 1272 775" fill="none" stroke="rgb(0,0,0)" />
  <polygon fill="rgb(0,0,0)" points="1104,771 1096,775 1104,779" stroke="rgb(0,0,0)" />
  <path d="M 520 839 L 1080 839" fill="none" stroke="rgb(0,0,0)" />
  <polygon fill="rgb(0,0,0)" points="528,835 520,839 528,843" stroke="rgb(0,0,0)" />
  <path d="M 520 903 L 888 903" fill="none" stroke="rgb(0,0,0)" />
  <polygon fill="rgb(0,0,0)" points="880,899 888,903 880,907" stroke="rgb(0,0,0)" />
  <path d="M 520 968 L 888 968" fill="none" stroke="rgb(0,0,0)" />
  <polygon fill="rgb(0,0,0)" points="528,964 520,968 528,972" stroke="rgb(0,0,0)" />
  <text fill="rgb(0,0,0)" font-family="sansserif" font-size="11" font-style="normal" font-weight="normal" x="140" y="133">.start()</text>
  <text fill="rgb(0,0,0)" font-family="sansserif" font-size="11" font-style="normal" font-weight="normal" x="140" y="198">.start()</text>
  <text fill="rgb(0,0,0)" font-family="sansserif" font-size="11" font-style="normal" font-weight="normal" x="140" y="263">.start()</text>
  <text fill="rgb(0,0,0)" font-family="sansserif" font-size="11" font-style="normal" font-weight="normal" x="140" y="328">.start()</text>
  <text fill="rgb(0,0,0)" font-family="sansserif" font-size="11" font-style="normal" font-weight="normal" x="524" y="392">GET /index.html</text>
  <text fill="rgb(0,0,0)" font-family="sansserif" font-size="11" font-style="normal" font-weight="normal" x="607" y="454">HTTP RESPONSE</text>
  <text fill="rgb(0,0,0)" font-family="sansserif" font-size="11" font-style="normal" font-weight="normal" x="524" y="518">Trigger initial JavaScript App events</text>
  <text fill="rgb(0,0,0)" font-family="sansserif" font-size="11" font-style="normal" font-weight="normal" x="725" y="583">Load views for logged-out users</text>
  <text fill="rgb(0,0,0)" font-family="sansserif" font-size="11" font-style="normal" font-weight="normal" x="524" y="647">WAMP RPC:login</text>
  <text fill="rgb(0,0,0)" font-family="sansserif" font-size="11" font-style="normal" font-weight="normal" x="1100" y="711">POST /_session</text>
  <text fill="rgb(0,0,0)" font-family="sansserif" font-size="11" font-style="normal" font-weight="normal" x="1183" y="773">HTTP RESPONSE</text>
  <text fill="rgb(0,0,0)" font-family="sansserif" font-size="11" font-style="normal" font-weight="normal" x="873" y="837">WAMP PUB:loggedIn or PUB:loggedOut</text>
  <text fill="rgb(0,0,0)" font-family="sansserif" font-size="11" font-style="normal" font-weight="normal" x="524" y="901">Trigger login JavaScript App events</text>
  <text fill="rgb(0,0,0)" font-family="sansserif" font-size="11" font-style="normal" font-weight="normal" x="733" y="966">Load views for logged-in users</text>
</svg>
