<?xml version='1.0' encoding='UTF-8'?>
<!DOCTYPE svg PUBLIC "-//W3C//DTD SVG 1.0//EN" "http://www.w3.org/TR/2001/REC-SVG-20010904/DTD/svg10.dtd">
<svg viewBox="0 0 1216 444" xmlns="http://www.w3.org/2000/svg" xmlns:inkspace="http://www.inkscape.org/namespaces/inkscape" xmlns:xlink="http://www.w3.org/1999/xlink">
  <defs id="defs_block">
    <filter height="1.504" id="filter_blur" inkspace:collect="always" width="1.1575" x="-0.07875" y="-0.252">
      <feGaussianBlur id="feGaussianBlur3780" inkspace:collect="always" stdDeviation="4.2" />
    </filter>
  </defs>
  <title>blockdiag</title>
  <desc>{
  network {
    address = "210.x.x.x/24";
    www;
    wamp-couchdb;
    wamp-zb;
  }
  network internal {
    address = "10.8.0.x/24";
    twistd;
    AutoBahn-WAMP;
    CouchDB;
    ZigBee-API;
    www;
    wamp-couchdb;
    wamp-zb;
  }
}
</desc>
  <rect fill="rgb(0,0,0)" height="40" stroke="rgb(0,0,0)" style="filter:url(#filter_blur);opacity:0.7;fill-opacity:1" width="104" x="155" y="162" />
  <rect fill="rgb(0,0,0)" height="40" stroke="rgb(0,0,0)" style="filter:url(#filter_blur);opacity:0.7;fill-opacity:1" width="104" x="307" y="162" />
  <rect fill="rgb(0,0,0)" height="40" stroke="rgb(0,0,0)" style="filter:url(#filter_blur);opacity:0.7;fill-opacity:1" width="104" x="459" y="162" />
  <rect fill="rgb(0,0,0)" height="40" stroke="rgb(0,0,0)" style="filter:url(#filter_blur);opacity:0.7;fill-opacity:1" width="104" x="611" y="306" />
  <rect fill="rgb(0,0,0)" height="40" stroke="rgb(0,0,0)" style="filter:url(#filter_blur);opacity:0.7;fill-opacity:1" width="104" x="763" y="306" />
  <rect fill="rgb(0,0,0)" height="40" stroke="rgb(0,0,0)" style="filter:url(#filter_blur);opacity:0.7;fill-opacity:1" width="104" x="915" y="306" />
  <rect fill="rgb(0,0,0)" height="40" stroke="rgb(0,0,0)" style="filter:url(#filter_blur);opacity:0.7;fill-opacity:1" width="104" x="1067" y="306" />
  <path d="M 131 103 L 587 103 A2,4 0 0 1 587 111 L 131 111 A2,4 0 0 1 131 103" fill="rgb(0,0,0)" style="filter:url(#filter_blur)" />
  <path d="M 131 247 L 1195 247 A2,4 0 0 1 1195 255 L 131 255 A2,4 0 0 1 131 247" fill="rgb(0,0,0)" style="filter:url(#filter_blur)" />
  <path d="M 128 100 L 584 100 A2,4 0 0 1 584 108 L 128 108 A2,4 0 0 1 128 100" fill="rgb(185,203,228)" stroke="rgb(0,0,0)" />
  <path d="M 584 108 A2,4 0 0 1 584 100" fill="none" stroke="rgb(0,0,0)" />
  <path d="M 128 100 L 584 100" fill="none" stroke="none" />
  <path d="M 356 35 L 356 100" fill="none" stroke="rgb(0,0,0)" />
  <path d="M 128 244 L 1192 244 A2,4 0 0 1 1192 252 L 128 252 A2,4 0 0 1 128 244" fill="rgb(185,203,228)" stroke="rgb(0,0,0)" />
  <path d="M 1192 252 A2,4 0 0 1 1192 244" fill="none" stroke="rgb(0,0,0)" />
  <path d="M 128 244 L 1192 244" fill="none" stroke="none" />
  <text fill="rgb(0,0,0)" font-family="sansserif" font-size="11" font-style="normal" font-weight="normal" x="55" y="109">210.x.x.x/24</text>
  <text fill="rgb(0,0,0)" font-family="sansserif" font-size="11" font-style="normal" font-weight="normal" x="80" y="246">internal</text>
  <text fill="rgb(0,0,0)" font-family="sansserif" font-size="11" font-style="normal" font-weight="normal" x="58" y="258">10.8.0.x/24</text>
  <path d="M 204 108 L 204 156" fill="none" stroke="rgb(0,0,0)" />
  <path d="M 204 196 L 204 244" fill="none" stroke="rgb(0,0,0)" />
  <rect fill="rgb(255,255,255)" height="40" stroke="rgb(0,0,0)" width="104" x="152" y="156" />
  <text fill="rgb(0,0,0)" font-family="sansserif" font-size="11" font-style="normal" font-weight="normal" x="192" y="179">www</text>
  <path d="M 356 108 L 356 156" fill="none" stroke="rgb(0,0,0)" />
  <path d="M 356 196 L 356 244" fill="none" stroke="rgb(0,0,0)" />
  <rect fill="rgb(255,255,255)" height="40" stroke="rgb(0,0,0)" width="104" x="304" y="156" />
  <text fill="rgb(0,0,0)" font-family="sansserif" font-size="11" font-style="normal" font-weight="normal" x="315" y="181">wamp-couchdb</text>
  <path d="M 508 108 L 508 156" fill="none" stroke="rgb(0,0,0)" />
  <path d="M 508 196 L 508 244" fill="none" stroke="rgb(0,0,0)" />
  <rect fill="rgb(255,255,255)" height="40" stroke="rgb(0,0,0)" width="104" x="456" y="156" />
  <text fill="rgb(0,0,0)" font-family="sansserif" font-size="11" font-style="normal" font-weight="normal" x="485" y="181">wamp-zb</text>
  <path d="M 660 252 L 660 300" fill="none" stroke="rgb(0,0,0)" />
  <rect fill="rgb(255,255,255)" height="40" stroke="rgb(0,0,0)" width="104" x="608" y="300" />
  <text fill="rgb(0,0,0)" font-family="sansserif" font-size="11" font-style="normal" font-weight="normal" x="645" y="324">twistd</text>
  <path d="M 812 252 L 812 300" fill="none" stroke="rgb(0,0,0)" />
  <rect fill="rgb(255,255,255)" height="40" stroke="rgb(0,0,0)" width="104" x="760" y="300" />
  <text fill="rgb(0,0,0)" font-family="sansserif" font-size="11" font-style="normal" font-weight="normal" x="767" y="324">AutoBahn-WAMP</text>
  <path d="M 964 252 L 964 300" fill="none" stroke="rgb(0,0,0)" />
  <rect fill="rgb(255,255,255)" height="40" stroke="rgb(0,0,0)" width="104" x="912" y="300" />
  <text fill="rgb(0,0,0)" font-family="sansserif" font-size="11" font-style="normal" font-weight="normal" x="939" y="324">CouchDB</text>
  <path d="M 1116 252 L 1116 300" fill="none" stroke="rgb(0,0,0)" />
  <rect fill="rgb(255,255,255)" height="40" stroke="rgb(0,0,0)" width="104" x="1064" y="300" />
  <text fill="rgb(0,0,0)" font-family="sansserif" font-size="11" font-style="normal" font-weight="normal" x="1088" y="325">ZigBee-API</text>
</svg>
